<svg width="192" height="36" viewBox="0 0 192 36" fill="none" xmlns="http://www.w3.org/2000/svg">
<g id="Layer_1" clip-path="url(#clip0_102_3459)">
<path id="Vector" d="M0.0793958 32.6151C0.0793958 32.6151 0.0288712 32.6223 0 32.6295C0 21.7819 0 10.9415 0 0.0938263C0.0288712 0.0938263 0.0505246 0.101044 0.0793958 0.108261C0.0793958 0.252607 0.0649602 0.389736 0.0649602 0.534083C0.0649602 11.0858 0.0649602 21.6375 0.0649602 32.1965C0.0649602 32.3408 0.072178 32.4779 0.0793958 32.6223V32.6151Z" fill="#B3B4B4"/>
<path id="Vector_2" d="M0.0787399 32.6151C0.0787399 32.4707 0.0644531 32.3336 0.0644531 32.1893C0.0644531 21.6375 0.0644531 11.0858 0.0644531 0.526865C0.0644531 0.382518 0.0715965 0.245389 0.0787399 0.101043C0.314472 -0.0505211 0.485913 -0.0433037 0.707358 0.194868C1.95745 1.53007 3.22897 2.84362 4.49335 4.16439C7.15069 6.93585 9.81518 9.71451 12.4725 12.486C13.694 13.7634 14.9084 15.0337 16.1299 16.3111C17.7301 17.9856 19.3302 19.66 20.9303 21.3416C21.016 21.4354 21.0732 21.5581 21.1374 21.6664C21.1803 21.6375 21.216 21.6087 21.2589 21.5798V14.8244H25.9664V32.7883C25.7378 32.9904 25.5878 32.9471 25.3663 32.7089C23.4948 30.7097 21.6018 28.7322 19.7159 26.7474C17.2514 24.1492 14.787 21.5509 12.3225 18.9455C10.8653 17.4082 9.40086 15.8637 7.94361 14.3264C6.92211 13.251 5.9006 12.1756 4.88624 11.1002C4.85767 11.0714 4.82909 11.0425 4.74337 10.9703V32.6151H0.0787399Z" fill="#282928"/>
<path id="Vector_3" d="M66.5908 20.6055C66.8837 20.9302 67.1623 21.255 67.4551 21.5726C69.8553 24.1997 72.2555 26.8268 74.6557 29.4611C75.4629 30.3488 76.2772 31.2366 77.0701 32.1315C77.163 32.2326 77.1844 32.4058 77.2487 32.5934C77.063 32.6006 76.963 32.6151 76.8701 32.6151C75.3914 32.6151 73.9199 32.6151 72.4412 32.6079C72.2912 32.6079 72.1055 32.5285 72.0055 32.4202C69.9625 30.1828 67.9337 27.931 65.8979 25.6865C64.9621 24.6544 64.0263 23.6151 63.0905 22.583C63.0191 22.5036 62.9548 22.4242 62.8334 22.2871V32.6006H58.2759V0.295914H62.8048V19.162C62.9191 19.0537 62.9905 19.0032 63.0477 18.9455C65.0264 16.737 67.0051 14.5285 68.9838 12.32C69.7839 11.425 70.5839 10.5301 71.3911 9.64234C71.4554 9.57017 71.5912 9.51243 71.6912 9.51243C73.1698 9.50522 74.6414 9.51243 76.1201 9.51243C76.1986 9.51243 76.3344 9.56295 76.3486 9.60626C76.3701 9.68565 76.3272 9.80834 76.2701 9.8733C74.4485 11.9014 72.6127 13.9222 70.7839 15.9431C69.4124 17.4587 68.0409 18.9743 66.6694 20.49C66.6408 20.5188 66.6194 20.5622 66.5836 20.6127L66.5908 20.6055Z" fill="#282929"/>
<path id="Vector_4" d="M38.81 32.6006H34.2739V0.295914H38.7957V19.1476C38.8957 19.0609 38.96 19.0249 39.0028 18.9743C41.3959 16.3039 43.7818 13.6407 46.1677 10.9703C46.5534 10.5445 46.9249 10.1043 47.3178 9.69287C47.4178 9.59182 47.5892 9.51243 47.7321 9.51243C49.1679 9.498 50.5966 9.50522 52.0324 9.51243C52.1324 9.51243 52.2395 9.57739 52.3396 9.61348C52.2967 9.71452 52.2824 9.83721 52.211 9.9166C51.2038 11.0353 50.1965 12.154 49.1893 13.2654C47.4035 15.2358 45.6176 17.2133 43.8318 19.1836C43.4103 19.6456 42.9889 20.1075 42.5388 20.5982C42.8746 20.9663 43.196 21.3344 43.5246 21.6881C45.6748 24.0481 47.8249 26.4082 49.9822 28.761C51.0037 29.8797 52.0252 30.9984 53.0396 32.1243C53.1396 32.2326 53.1539 32.4202 53.2253 32.6151C51.5181 32.6151 49.9108 32.6151 48.3035 32.6151C48.225 32.6151 48.1178 32.5646 48.0678 32.4996C46.4605 30.7314 44.8533 28.9631 43.246 27.1877C41.8173 25.6071 40.3887 24.0265 38.9528 22.4459C38.9243 22.417 38.8886 22.3954 38.8171 22.3448V32.6079L38.81 32.6006Z" fill="#282928"/>
<path id="Vector_5" d="M104.165 21.0601C104.108 23.5068 103.472 26.1195 101.829 28.4146C100.472 30.3127 98.6503 31.5397 96.4359 32.1315C93.6428 32.8749 90.8569 32.8244 88.1353 31.7995C85.3636 30.753 83.5064 28.7321 82.3991 25.9896C81.6134 24.0409 81.2848 21.9984 81.4134 19.9054C81.5777 17.2277 82.342 14.745 84.0135 12.6159C85.4351 10.8043 87.2852 9.66399 89.4997 9.14434C92.2642 8.49478 95.0072 8.57417 97.6574 9.6712C100.679 10.927 102.501 13.2943 103.501 16.3761C103.958 17.7763 104.165 19.2269 104.172 21.0457L104.165 21.0601ZM99.6504 20.6848C99.6647 19.4074 99.4218 18.1732 98.9861 16.9896C98.4361 15.4956 97.5717 14.2326 96.1716 13.4242C94.8858 12.6808 93.4928 12.486 92.0356 12.6159C89.9283 12.8035 88.2853 13.7706 87.2352 15.6327C85.6851 18.3753 85.5208 21.2694 86.528 24.2358C87.0423 25.7514 87.8996 27.0216 89.2782 27.8877C90.4855 28.6383 91.8141 28.8476 93.2071 28.7827C95.2429 28.6961 96.9002 27.8733 98.0717 26.1628C99.1932 24.5172 99.6147 22.6552 99.6576 20.6921L99.6504 20.6848Z" fill="#282928"/>
<path id="Vector_6" d="M23.2234 0.274256C25.2378 0.216518 27.3166 1.8765 27.3237 4.38091C27.3237 6.91419 25.3307 8.47313 23.1877 8.4587C20.9161 8.44426 19.2017 6.70489 19.2017 4.39535C19.2017 2.06415 20.9518 0.274256 23.2234 0.274256Z" fill="#FCDF00"/>
<g id="Group">
<path id="Vector_7" d="M111.194 15.2718C111.265 15.2718 111.33 15.2574 111.394 15.2574C113.465 15.2574 115.53 15.2358 117.601 15.2791C118.966 15.3079 120.223 15.7193 121.23 16.7225C123.066 18.5629 122.83 21.5365 120.73 23.0666C120.687 23.0954 120.652 23.1315 120.616 23.1532C120.952 23.4852 121.323 23.7666 121.587 24.1347C123.395 26.5886 122.266 29.9086 119.316 30.8035C118.623 31.0128 117.887 31.1211 117.166 31.1427C115.23 31.186 113.287 31.1572 111.351 31.1572C111.308 31.1572 111.265 31.1572 111.201 31.1427V15.2791L111.194 15.2718ZM113.437 22.2654C114.58 22.2654 115.701 22.2654 116.816 22.2654C117.223 22.2654 117.637 22.2654 118.037 22.2077C119.802 21.9334 120.673 20.0353 119.752 18.4908C119.194 17.5597 118.309 17.271 117.309 17.2494C116.101 17.2277 114.894 17.2494 113.687 17.2494C113.608 17.2494 113.523 17.2638 113.437 17.271V22.2726V22.2654ZM113.444 29.0858C113.487 29.1002 113.515 29.1147 113.544 29.1147C114.88 29.1147 116.216 29.1435 117.551 29.1075C118.444 29.0786 119.23 28.7394 119.737 27.931C120.409 26.8556 120.173 25.4483 119.209 24.7987C118.602 24.3945 117.901 24.3152 117.201 24.3079C116.051 24.2935 114.894 24.3079 113.744 24.3079C113.644 24.3079 113.537 24.3152 113.437 24.3224V29.093L113.444 29.0858Z" fill="#282928"/>
<path id="Vector_8" d="M183.463 30.1901C182.685 29.8147 182.22 29.2157 182.292 28.2991C182.356 27.4402 182.706 26.7763 183.606 26.4731C183.542 26.3577 183.485 26.2638 183.421 26.1628C182.428 24.5605 182.52 22.4819 183.663 21.0024C184.299 20.1796 185.178 19.7755 186.185 19.66C187.178 19.5445 188.149 19.6167 189.071 20.093C189.15 20.1291 189.314 20.0858 189.392 20.0136C189.885 19.5734 190.364 19.1259 190.9 18.6279C191.264 19.0609 191.621 19.4795 192.007 19.9415C191.721 20.2446 191.393 20.6415 191.021 20.988C190.671 21.32 190.571 21.5942 190.771 22.1139C191.414 23.745 191.2 25.3039 190.057 26.6752C189.464 27.3825 188.657 27.7289 187.764 27.8661C186.935 27.996 186.121 27.9455 185.314 27.6784C184.856 27.5269 184.399 27.7506 184.221 28.1764C184.028 28.6383 184.171 29.1435 184.621 29.3456C184.964 29.4972 185.356 29.5982 185.728 29.6271C186.628 29.6848 187.535 29.6415 188.435 29.7209C189.035 29.7787 189.65 29.9158 190.214 30.1179C191.993 30.7674 192.135 32.7883 191.428 33.9575C190.814 34.9751 189.892 35.5381 188.764 35.7835C187.171 36.1371 185.599 36.0649 184.085 35.4298C182.921 34.939 182.113 34.0946 182.02 32.7594C181.949 31.6913 182.37 30.8613 183.321 30.3344C183.356 30.3127 183.399 30.2911 183.428 30.2694C183.442 30.255 183.442 30.2334 183.463 30.1828V30.1901ZM188.907 23.5718C188.821 23.3047 188.742 22.8139 188.521 22.3953C187.949 21.3055 186.385 21.1395 185.549 22.0417C184.878 22.7634 184.749 24.1203 185.256 25.0658C185.771 26.0184 186.971 26.3649 187.892 25.7947C188.628 25.34 188.828 24.6038 188.907 23.5718ZM186.921 31.4892C186.921 31.4892 186.921 31.5253 186.921 31.5469C186.792 31.5469 186.664 31.5325 186.535 31.5469C185.899 31.6263 185.242 31.6479 184.635 31.8212C183.913 32.0232 183.778 32.7883 184.328 33.3079C184.542 33.51 184.814 33.6616 185.092 33.7698C185.835 34.0658 186.614 34.1307 187.399 34.073C188.057 34.0224 188.7 33.9286 189.257 33.5317C189.65 33.2502 189.871 32.8749 189.778 32.3913C189.7 31.9655 189.335 31.8139 188.971 31.749C188.299 31.6407 187.614 31.5758 186.935 31.4892H186.921Z" fill="#282929"/>
<path id="Vector_9" d="M144.975 19.7971H147.332C148.211 22.0128 149.09 24.2213 149.997 26.4948C150.233 25.8957 150.447 25.3544 150.654 24.8131C151.29 23.1676 151.918 21.522 152.561 19.8837C152.597 19.7899 152.704 19.7249 152.783 19.6455C152.861 19.7321 152.983 19.7971 153.019 19.8981C153.833 21.9984 154.633 24.0986 155.44 26.1916C155.469 26.271 155.504 26.3432 155.569 26.4803C156.476 24.2213 157.362 22.0128 158.248 19.7971H160.619C160.219 20.7354 159.819 21.6736 159.419 22.6046C158.212 25.4122 156.997 28.2269 155.79 31.0345C155.733 31.1716 155.69 31.3304 155.512 31.2654C155.419 31.2293 155.319 31.1211 155.276 31.02C154.49 29.0641 153.711 27.1082 152.926 25.1451C152.883 25.0441 152.833 24.9503 152.761 24.7915C152.497 25.441 152.254 26.0401 152.011 26.6319C151.426 28.0754 150.847 29.5188 150.254 30.9623C150.197 31.0922 150.19 31.3376 149.961 31.2582C149.847 31.2221 149.733 31.0922 149.69 30.9767C148.154 27.3464 146.618 23.7089 145.089 20.0786C145.054 19.992 145.025 19.8981 144.989 19.7971H144.975Z" fill="#2A2A2A"/>
<path id="Vector_10" d="M135.539 25.9246C135.689 26.9062 135.967 27.7867 136.66 28.494C137.282 29.1291 138.06 29.3601 138.917 29.3528C140.182 29.3528 141.296 28.9342 142.232 28.0393C142.625 28.5012 143.011 28.9559 143.404 29.425C141.946 30.8757 140.196 31.4459 138.167 31.2438C136.896 31.1139 135.767 30.6664 134.874 29.7209C134.074 28.8693 133.624 27.8372 133.431 26.6897C133.124 24.8781 133.389 23.1676 134.446 21.6303C135.274 20.4322 136.46 19.8115 137.875 19.6022C138.946 19.4435 140.003 19.494 141.003 19.9487C142.382 20.5838 143.132 21.7241 143.325 23.1965C143.432 23.9832 143.346 24.7987 143.354 25.5926C143.354 25.8669 143.232 25.9318 142.975 25.9246C140.618 25.9174 138.26 25.9246 135.896 25.9246H135.524H135.539ZM135.674 24.2069H141.332C141.418 23.3192 141.253 22.5397 140.568 21.9551C139.982 21.4643 139.282 21.3561 138.546 21.3994C136.996 21.486 135.896 22.749 135.674 24.2069Z" fill="#282929"/>
<path id="Vector_11" d="M169.384 19.6022H171.663V20.4106C172.234 20.1868 172.77 19.8909 173.341 19.7682C174.777 19.4579 176.191 19.5445 177.463 20.3889C178.47 21.0601 178.913 22.1066 179.106 23.2614C179.199 23.8027 179.249 24.3584 179.256 24.9142C179.27 26.9278 179.256 28.9414 179.256 30.9551C179.256 31.0056 179.256 31.0633 179.249 31.1283H177.027V30.7746C177.027 29.0208 177.034 27.267 177.027 25.5204C177.027 24.9431 176.991 24.3729 176.927 23.8027C176.699 21.8757 175.334 21.2333 173.706 21.587C173.256 21.6808 172.827 21.919 172.434 22.1716C171.927 22.4892 171.641 22.9222 171.655 23.6151C171.705 26.1267 171.677 28.6455 171.677 31.1788H169.398V19.6022H169.384Z" fill="#282929"/>
<path id="Vector_12" d="M131.46 21.6592C130.36 21.5148 129.36 21.587 128.488 22.2582C128.095 22.5613 127.881 22.9294 127.888 23.4779C127.91 25.9246 127.895 28.3713 127.895 30.8252C127.895 30.9406 127.895 31.0561 127.895 31.186H125.609V19.6167H127.888V20.4972C129.124 19.6961 130.41 19.4507 131.817 19.7321C131.696 20.3817 131.581 21.0168 131.467 21.6592H131.46Z" fill="#2A2A2A"/>
<path id="Vector_13" d="M163.312 19.7971H165.576V31.1788H163.312V19.7971Z" fill="#2A2B2B"/>
<path id="Vector_14" d="M164.441 17.6391C163.669 17.6391 163.134 17.0834 163.141 16.2967C163.141 15.5678 163.734 14.9615 164.441 14.9543C165.155 14.9471 165.805 15.6038 165.798 16.3328C165.791 17.0762 165.198 17.6391 164.441 17.6391Z" fill="#2A2B2B"/>
</g>
</g>
<defs>
<clipPath id="clip0_102_3459">
<rect width="192" height="36" fill="white"/>
</clipPath>
</defs>
</svg>
