<svg width="13" height="13" viewBox="0 0 13 13" fill="none" xmlns="http://www.w3.org/2000/svg">
<path id="Vector" d="M5.63647 0.0161042C2.52836 0.0161042 0 2.54446 0 5.65258C0 8.76069 2.52836 11.289 5.63647 11.289C6.58662 11.289 7.52066 11.0636 8.30977 10.6288C8.37298 10.7048 8.44306 10.7749 8.51912 10.8381L10.1295 12.4485C10.2782 12.6159 10.4596 12.751 10.6624 12.8457C10.8652 12.9405 11.0853 12.9927 11.309 12.9993C11.5328 13.0059 11.7555 12.9667 11.9636 12.884C12.1716 12.8014 12.3606 12.6772 12.5189 12.5189C12.6772 12.3606 12.8014 12.1716 12.884 11.9636C12.9667 11.7555 13.0059 11.5328 12.9993 11.309C12.9927 11.0853 12.9405 10.8652 12.8457 10.6624C12.751 10.4596 12.6159 10.2782 12.4486 10.1295L10.8381 8.51912C10.7597 8.44065 10.6733 8.37049 10.5805 8.30977C11.0153 7.52066 11.289 6.60272 11.289 5.63647C11.289 2.52836 8.76069 0 5.65258 0L5.63647 0.0161042ZM5.63647 1.62652C7.87496 1.62652 9.66252 3.41409 9.66252 5.65258C9.66252 6.71545 9.27602 7.69781 8.59965 8.4225C8.58354 8.4386 8.56744 8.45471 8.55133 8.47081C8.47527 8.53402 8.40519 8.6041 8.34198 8.68017C7.63339 9.32433 6.66714 9.69473 5.62037 9.69473C3.38188 9.69473 1.59432 7.90716 1.59432 5.66868C1.59432 3.4302 3.38188 1.64263 5.62037 1.64263L5.63647 1.62652Z" fill="black"/>
</svg>
