<svg width="30" height="30" viewBox="0 0 30 30" fill="none" xmlns="http://www.w3.org/2000/svg">
<g id="Group 19">
<path id="Vector" d="M13.9752 6.52174C12.8479 6.52174 11.9256 7.40217 11.9256 8.47826H9.87586C8.74853 8.47826 7.82617 9.3587 7.82617 10.4348H22.174C22.174 9.3587 21.2516 8.47826 20.1243 8.47826H18.0746C18.0746 7.40217 17.1523 6.52174 16.0249 6.52174H13.9752ZM9.87586 12.3913V21.8022C9.87586 22.0174 10.0398 22.1739 10.2653 22.1739H19.7554C19.9808 22.1739 20.1448 22.0174 20.1448 21.8022V12.3913H18.0951V19.2391C18.0951 19.787 17.6442 20.2174 17.0703 20.2174C16.4964 20.2174 16.0454 19.787 16.0454 19.2391V12.3913H13.9957V19.2391C13.9957 19.787 13.5448 20.2174 12.9709 20.2174C12.397 20.2174 11.946 19.787 11.946 19.2391V12.3913H9.89636H9.87586Z" fill="black"/>
<circle id="Ellipse 1" cx="15" cy="15" r="14" stroke="black" stroke-width="2"/>
</g>
</svg>
